<?xml version="1.0" encoding="utf-8"?>
<!-- Generator: Adobe Illustrator 27.5.0, SVG Export Plug-In . SVG Version: 6.00 Build 0)  -->
<svg version="1.1" id="katman_1" xmlns="http://www.w3.org/2000/svg" xmlns:xlink="http://www.w3.org/1999/xlink" x="0px" y="0px"
	 viewBox="0 0 5000 5000" style="enable-background:new 0 0 5000 5000;" xml:space="preserve">
<g>
	<g>
		<path d="M2527.572,4723.764c-75.734,13.769-138.777-23.414-169.816-90.723L1273.978,1983.83
			C996.713,1158.764,1587.322,289.974,2472.712,275.533c44.802-0.343,90.528-1.711,135.208,1.969
			c634.375,52.297,1181.906,604.805,1186.179,1248.363c2.051,312.036-98.242,542.625-217.457,824.676l-895.554,2179.646
			C2645.42,4613.51,2628.255,4700.545,2527.572,4723.764L2527.572,4723.764z M2461.068,789.783
			c-367.058,17.985-679.875,302.399-720.89,669.403c-51.399,459.945,323.683,847.011,791.593,834.297
			c467.137-28.477,810.301-447.407,711.231-905.469c-78.567-363.113-407.887-615.203-779.418-598.461L2461.068,789.783z
			 M2461.068,789.783"/>
	</g>
</g>
</svg>
